<?xml version="1.0" encoding="UTF-8" standalone="no"?><!DOCTYPE svg PUBLIC "-//W3C//DTD SVG 1.1//EN" "http://www.w3.org/Graphics/SVG/1.1/DTD/svg11.dtd"><svg width="100%" height="100%" viewBox="0 0 45526 1983" version="1.1" xmlns="http://www.w3.org/2000/svg" xmlns:xlink="http://www.w3.org/1999/xlink" xml:space="preserve" xmlns:serif="http://www.serif.com/" style="fill-rule:evenodd;clip-rule:evenodd;stroke-linejoin:round;stroke-miterlimit:2;"><g id="Logo_NEG_PRIMARY"><g><path d="M-0,1930.53l1010.59,0c595.05,0 998.116,-213.924 1119.88,-566.116c73.961,-213.924 -19.711,-375.671 -261.302,-446.11c236.825,-60.003 426.337,-213.924 502.102,-433.066c99.216,-286.971 -44.989,-485.242 -773.011,-485.242l-930.804,0l-667.454,1930.53Zm658.163,-365.236l147.922,-427.848l482.024,0c269.268,0 344.644,70.438 294.134,216.533c-55.02,159.139 -196.058,211.315 -415.462,211.315l-508.618,0Zm266.08,-769.605l148.824,-430.457l458.753,0c232.701,0 318.901,39.133 265.685,193.054c-53.216,153.921 -185.132,237.403 -401.212,237.403l-472.05,0Z" style="fill:#fff;fill-rule:nonzero;"/><path d="M2729.25,1930.53l1226.67,0l126.275,-365.236l-1007.26,0c-73.135,0 -97.642,-15.653 -75.995,-78.265l123.57,-357.409l884.263,-0l159.518,-365.237l-917.506,0l138,-399.151l1083.72,0l126.275,-365.236l-1615.61,0l-554.709,1604.43c-88.393,255.665 96.685,326.103 302.792,326.103Z" style="fill:#fff;fill-rule:nonzero;"/><path d="M4723.83,1930.53l1150.21,0l126.275,-365.236l-897.561,0c-73.134,0 -97.641,-15.653 -75.994,-78.265l514.12,-1487.03l-531.888,0l-551.101,1594c-88.392,255.666 76.456,336.539 265.941,336.539Z" style="fill:#fff;fill-rule:nonzero;"/><path d="M7124.93,1956.62c658.211,-0 1188.97,-294.798 1399.12,-902.656l364.394,-1053.97l-521.915,0l-373.413,1080.06c-121.766,352.192 -343,511.33 -741.916,511.33c-378.97,0 -491.067,-156.529 -373.812,-495.677l378.825,-1095.71l-531.887,0l-377.022,1090.49c-201.138,581.769 126.058,866.132 777.621,866.132Z" style="fill:#fff;fill-rule:nonzero;"/><path d="M8696.37,1930.53l531.888,0l200.236,-579.16l334.726,-237.403l306.085,816.563l618.32,0l-455.006,-1116.58l1122.46,-813.955l-595.049,0l-1161.06,858.305l296.746,-858.305l-531.888,0l-667.454,1930.53Z" style="fill:#fff;fill-rule:nonzero;"/><path d="M11998.3,1956.62c658.212,-0 1188.97,-294.798 1399.13,-902.656l364.394,-1053.97l-521.915,0l-373.413,1080.06c-121.766,352.192 -343.001,511.33 -741.917,511.33c-378.97,0 -491.067,-156.529 -373.811,-495.677l378.825,-1095.71l-531.888,0l-377.021,1090.49c-201.138,581.769 126.058,866.132 777.62,866.132Z" style="fill:#fff;fill-rule:nonzero;"/></g><g><g><path d="M14074.5,1956.62l518.119,-0l538.924,-1565.3l709.176,-0l125.749,-365.237l-1936.47,0l-125.749,365.237l709.175,-0l-538.924,1565.3Z" style="fill:#52caf5;fill-rule:nonzero;"/><path d="M16521.8,1982.71c660.602,0 1293.5,-352.192 1519.85,-1009.62c216.468,-628.728 -124.799,-973.094 -778.925,-973.094c-657.363,0 -1294.05,344.366 -1521.29,1004.4c-217.367,631.337 126.241,978.311 780.366,978.311Zm-247.852,-973.094c139.222,-404.368 435.581,-644.381 843.6,-644.381c404.78,0 512.303,242.621 382.063,620.902c-138.324,401.76 -437.567,631.337 -845.585,631.337c-391.828,-0 -513.911,-219.142 -380.078,-607.858Z" style="fill:#52caf5;fill-rule:nonzero;"/><path d="M18526.5,1956.62l518.119,-0l538.925,-1565.3l709.175,-0l125.749,-365.237l-1936.47,0l-125.749,365.237l709.176,-0l-538.925,1565.3Z" style="fill:#52caf5;fill-rule:nonzero;"/><path d="M20896.5,211.315l-1235.6,1745.31l505.166,-0l255.634,-375.672l861.373,0l-19.242,375.672l534.31,-0l62.361,-1930.54l-563.455,0c-161.912,0 -305.27,49.568 -400.55,185.227Zm-230.131,1007.01l587.306,-868.741c5.933,-7.826 10.07,-10.435 23.023,-10.435l74.479,-0l-46.874,879.176l-637.934,-0Z" style="fill:#52caf5;fill-rule:nonzero;"/><path d="M22487.9,1956.62l1120.43,-0l125.749,-365.237l-874.326,0c-71.241,0 -94.996,-15.653 -73.439,-78.264l511.978,-1487.03l-518.119,0l-548.805,1594c-88.024,255.665 71.949,336.539 256.529,336.539Z" style="fill:#52caf5;fill-rule:nonzero;"/><path d="M25512,373.063c158.674,-0 338.408,23.479 466.165,75.656l219.138,-326.104c-98.258,-62.612 -345.83,-114.789 -611.366,-114.789c-731.843,0 -1337.92,396.543 -1542.52,1009.62c-195.62,586.987 108.065,965.267 859.337,965.267c259.06,0 523.674,-44.35 726.384,-125.224l13.687,-331.321c-134.187,41.741 -342.309,91.309 -568.986,91.309c-472.784,-0 -624.011,-219.142 -494.859,-613.075c118.918,-354.801 392.232,-631.337 933.019,-631.337Z" style="fill:#52caf5;fill-rule:nonzero;"/><path d="M26937.5,211.315l-1235.6,1745.31l505.166,-0l255.634,-375.672l861.373,0l-19.242,375.672l534.31,-0l62.361,-1930.54l-563.455,0c-161.912,0 -305.27,49.568 -400.55,185.227Zm-230.131,1007.01l587.306,-868.741c5.933,-7.826 10.07,-10.435 23.023,-10.435l74.479,-0l-46.874,879.176l-637.934,-0Z" style="fill:#52caf5;fill-rule:nonzero;"/><path d="M28166.2,1956.62l518.119,-0l238.025,-691.34l576.408,-0c155.435,-0 226.7,46.959 175.502,195.662l-170.659,495.678l518.119,-0l186.827,-542.637c56.587,-164.356 6.147,-300.015 -167.844,-349.583c227.529,-96.527 379.656,-237.404 454.207,-453.937c140.12,-406.977 -148.532,-584.378 -789.704,-584.378l-874.326,0l-664.674,1930.54Zm872.911,-1030.49l184.133,-534.81l346.492,-0c288.204,-0 442.765,49.567 372.704,253.056c-73.653,213.924 -226.536,281.754 -505.025,281.754l-398.304,-0Z" style="fill:#52caf5;fill-rule:nonzero;"/><path d="M30870.1,1956.62l1194.91,-0l125.749,-365.237l-981.188,0c-71.241,0 -94.996,-15.653 -73.439,-78.264l123.054,-357.41l861.373,-0l158.132,-365.236l-893.756,-0l137.426,-399.151l1055.67,-0l125.749,-365.237l-1573.79,0l-552.398,1604.43c-88.024,255.665 91.734,326.104 292.505,326.104Z" style="fill:#52caf5;fill-rule:nonzero;"/></g><g><path d="M32846.2,1948.8l518.119,0l238.025,-691.34l576.407,0c155.436,0 226.701,46.959 175.503,195.662l-170.66,495.678l518.12,0l186.827,-542.636c56.587,-164.357 6.146,-300.016 -167.844,-349.584c227.528,-96.526 379.655,-237.403 454.206,-453.936c140.121,-406.978 -148.531,-584.378 -789.704,-584.378l-874.326,-0l-664.673,1930.53Zm872.911,-1030.49l184.132,-534.81l346.492,0c288.204,0 442.765,49.568 372.705,253.057c-73.653,213.924 -226.536,281.753 -505.025,281.753l-398.304,0Z" style="fill:#f80030;fill-rule:nonzero;"/><path d="M36183.4,203.489l-1235.6,1745.31l505.166,0l255.634,-375.671l861.373,-0l-19.242,375.671l534.31,0l62.361,-1930.53l-563.455,-0c-161.912,-0 -305.27,49.568 -400.55,185.227Zm-230.131,1007.01l587.307,-868.74c5.932,-7.827 10.069,-10.436 23.022,-10.436l74.479,0l-46.874,879.176l-637.934,0Z" style="fill:#f80030;fill-rule:nonzero;"/><path d="M39042.1,365.236c158.674,0 338.409,23.48 466.166,75.656l219.138,-326.103c-98.258,-62.612 -345.83,-114.789 -611.366,-114.789c-731.844,0 -1337.92,396.542 -1542.52,1009.62c-195.62,586.987 108.064,965.268 859.337,965.268c259.06,-0 523.674,-44.351 726.384,-125.224l13.686,-331.322c-134.186,41.742 -342.308,91.309 -568.985,91.309c-472.784,0 -624.012,-219.141 -494.859,-613.075c118.918,-354.801 392.232,-631.337 933.018,-631.337Z" style="fill:#f80030;fill-rule:nonzero;"/><path d="M39439.2,1948.8l518.12,0l664.673,-1930.53l-518.119,-0l-664.674,1930.53Z" style="fill:#f80030;fill-rule:nonzero;"/><path d="M42075.2,1948.8l385.351,0l664.674,-1930.53l-485.737,-0l-398.804,1158.32l-770.202,-1158.32l-356.207,-0l-664.673,1930.53l485.736,0l397.008,-1153.1l742.854,1153.1Z" style="fill:#f80030;fill-rule:nonzero;"/><path d="M45284.6,461.763l240.908,-323.495c-187.322,-86.091 -409.886,-135.659 -694.851,-135.659c-780.417,-0 -1450.55,375.671 -1673.3,1022.66c-201.199,584.378 116.691,949.615 867.964,949.615c340.016,-0 722.271,-75.657 941.337,-185.227l330.541,-960.05l-981.189,0l-158.131,365.236l501.928,0l-130.24,378.281c-102.891,26.088 -210.108,36.523 -326.685,36.523c-485.737,0 -648.286,-195.662 -513.555,-586.987c149.102,-433.065 507.177,-654.816 1015.58,-654.816c184.58,0 404.615,28.697 579.692,93.918Z" style="fill:#f80030;fill-rule:nonzero;"/></g></g></g></svg>